<svg xmlns="http://www.w3.org/2000/svg" viewBox="0 0 512 512" role="img" aria-labelledby="title">
  <title>MissApp</title>
  <defs><linearGradient id="g" x1="0" y1="0" x2="1" y2="1"><stop stop-color="#078fd3"/><stop offset="1" stop-color="#00c8df"/></linearGradient></defs>
  <rect width="512" height="512" rx="128" fill="url(#g)"/>
  <path fill="#fff" d="M126 144h260c20 0 36 16 36 36v152c0 20-16 36-36 36H248l-84 62 20-62h-58c-20 0-36-16-36-36V180c0-20 16-36 36-36Zm62 87v74h28v-74h-28Zm54-32v106h28V199h-28Zm54 50v56h28v-56h-28Z"/>
</svg>
